<svg xmlns="http://www.w3.org/2000/svg" viewBox="0 0 1471 1096" role="img" aria-label="Wael Academy">
  <style>svg{color:#17497E}</style>
  <g fill="currentColor">
    <path d="M917.116 390.615C930.541 380.16 944.671 369.75 956.911 357.72C967.246 347.58 981.406 326.475 992.146 319.56C997.861 315.885 1005.45 316.11 1008.78 313.155C1012.56 309.81 1024.55 288.855 1027.68 283.125C1057.59 228.435 1074.44 159.42 1036.4 104.13C1027.94 91.845 1010.22 74.88 996.346 69.345C982.441 63.795 982.741 72.285 974.086 78.465C934.831 106.5 885.451 57.66 913.981 18.375C931.351 -5.55 965.626 -6.405 983.416 17.535C987.286 22.74 989.671 32.295 992.971 35.31C996.271 38.325 1007.52 41.625 1012.58 44.49C1118.24 104.46 1096.88 226.995 1043 315.69C1040.28 320.16 1034.42 325.245 1032.86 330.015C1031.18 335.175 1032.41 338.67 1031.63 343.185C1028.45 361.53 977.191 407.835 961.246 421.035C934.186 443.445 893.011 473.04 861.736 488.46C854.116 492.21 841.666 498.585 833.521 495.435C823.891 491.7 800.026 477.255 790.066 471.255C777.046 463.41 757.216 450.27 745.441 441.06C742.471 438.735 741.451 434.835 738.871 434.55L732.436 435.48C706.696 453.285 677.251 477.015 648.961 490.155C626.896 500.4 617.956 491.67 598.996 480.99C569.986 464.64 538.621 442.89 512.926 421.71C498.946 410.175 444.916 360.735 441.961 345.885C440.986 340.965 442.291 336.195 440.971 331.05C439.531 325.5 428.326 312.015 424.651 305.64C379.741 227.64 360.436 124.065 438.091 59.19C449.911 49.32 475.681 40.29 482.041 34.065C485.341 30.825 486.721 24.165 489.406 19.845C505.141 -5.55 544.066 -6.45 560.881 18.39C586.651 56.445 544.336 103.275 503.971 81.045C487.801 72.135 494.896 59.55 472.351 71.865C418.036 101.535 407.191 165.945 420.781 221.76C425.821 242.46 447.781 295.08 462.466 309.585C468.676 315.72 477.316 314.895 484.111 321.045C493.936 329.955 504.886 346.35 515.011 356.355C537.571 378.645 570.421 403.86 597.226 420.93C604.276 425.415 621.106 436.86 627.736 439.365C629.656 440.085 631.291 440.985 633.436 440.235L693.631 402.45C698.851 395.415 689.566 393.03 686.281 389.46C679.186 381.765 653.731 355.29 652.126 347.355C650.731 340.425 652.546 336.465 649.186 328.71C646.471 322.44 641.341 318.81 638.251 313.74C593.656 240.645 570.616 137.895 636.676 69.24C654.091 51.135 682.096 43.41 695.581 27.405C699.751 22.455 702.736 14.82 707.236 10.275C722.101 -4.73999 752.641 -2.31 766.711 12.66C772.381 18.69 775.831 31.38 780.586 34.77C783.676 36.96 788.311 37.425 791.941 39.255C893.626 90.405 896.296 197.985 847.801 290.385C841.936 301.56 825.736 321.9 822.766 331.545C821.086 337.035 822.301 340.995 821.326 345.93C818.431 360.45 776.956 395.475 777.301 399.51C790.096 411.255 805.471 419.28 820.081 428.385C826.171 432.18 833.326 441.03 842.416 440.445C845.491 440.25 860.821 430.545 864.706 428.145C883.066 416.79 900.361 403.74 917.146 390.66L917.116 390.615ZM814.891 285.495C845.686 231.735 865.246 161.355 827.086 104.73C818.716 92.31 790.846 66.585 775.891 65.1C772.051 64.725 765.106 75.72 760.201 79.035C747.586 87.57 730.756 89.19 717.001 82.41C710.536 79.215 700.816 66.93 697.036 66.3C685.786 64.425 659.116 88.56 651.736 97.215C602.311 155.16 628.516 247.86 667.846 304.215C676.216 316.215 681.106 312.42 689.926 318.105C701.731 325.71 716.896 350.7 730.171 361.32C732.226 362.955 734.536 365.655 737.446 365.58C739.921 365.505 753.931 350.73 756.871 347.655C763.816 340.38 774.601 324.63 782.011 319.545C786.646 316.365 789.436 317.265 793.846 315.555C803.011 312.015 809.836 294.315 814.891 285.495Z"/>
    <path d="M24.5616 686.61L59.5916 795L94.2016 688.12C96.2016 685.24 108.552 686.8 112.422 687.03L145.962 795L181.452 686.61H206.402L156.412 841.91H137.412L102.782 734.57L69.9916 840.42C68.0116 843.75 56.3416 841.19 52.3516 842.08L0.101562 686.61H24.5716H24.5616Z"/>
    <path d="M287.964 842.01V831.46C252.124 862.92 203.644 834.39 203.884 788.93C204.124 743.94 252.614 714.39 287.954 747.04V735.53H312.914V842.01H287.964ZM254.144 756.88C220.924 761.41 221.464 816.7 253.014 820.82C302.844 827.33 300.734 750.53 254.144 756.88Z"/>
    <path d="M437.642 797.88H358.002C362.872 824.74 399.252 828.86 416.052 810.37C418.292 813.5 431.622 823.92 430.822 826.95C400.432 860.97 337.032 843.39 333.022 796.48C325.812 712.3 451.422 712.92 437.642 797.88ZM414.622 777.74C408.812 747.53 364.632 749.34 358.012 777.74H414.622Z"/>
    <path d="M482.743 682.77H457.793V842.01H482.743V682.77Z"/>
    <path d="M540.312 842.009L605.042 686.539L621.982 687.179L685.203 842.009H657.852L645.963 812.869L579.343 812.239L567.182 842.009H540.312ZM636.273 790.209L613.232 728.819L588.292 790.209H636.273Z"/>
    <path d="M724.881 765.599C710.121 780.359 714.221 810.379 734.141 818.489C747.861 824.079 762.321 820.229 772.861 810.409L788.811 826.169C759.261 859.199 701.771 846.089 692.381 801.719C683.321 758.909 719.571 724.959 761.791 735.209C768.841 736.919 784.061 744.309 787.441 750.879C788.161 752.269 787.661 752.289 786.961 753.299C783.911 757.729 776.491 763.459 772.991 768.119C761.271 754.769 737.691 752.779 724.871 765.599H724.881Z"/>
    <path d="M880.952 842.01V831.46C845.112 862.92 796.632 834.39 796.872 788.93C797.112 743.94 845.602 714.39 880.942 747.04V735.53H905.902V842.01H880.952ZM847.132 756.88C813.912 761.41 814.452 816.7 846.002 820.82C895.832 827.33 893.722 750.53 847.132 756.88Z"/>
    <path d="M1034.47 682.77V842.01H1010.48V831.46L997.702 840.27C949.522 859.6 912.102 809.89 930.972 764.93C941.492 739.87 971.042 725.71 996.752 737.27C1001.89 739.58 1005.4 743.97 1010.48 746.09V682.78H1034.47V682.77ZM975.712 756.88C940.812 762 941.382 827.44 988.642 820.65C1021.99 815.86 1020.08 750.38 975.712 756.88Z"/>
    <path d="M1080.53 797.879C1084.47 824.569 1121.5 828.979 1137.65 810.369H1139.04L1153.43 826.179C1117.14 865.109 1050.39 839.169 1054.63 783.989C1059.32 722.969 1149.2 713.969 1159.92 775.579C1161.11 782.439 1161.62 791.809 1158.72 797.879H1080.52H1080.53ZM1136.18 777.739C1131.95 747.619 1085.87 749.199 1080.53 777.739H1136.18Z"/>
    <path d="M1346.32 842.01H1322.33V775.34C1322.33 774.67 1319.9 767.86 1319.31 766.85C1311.33 753.07 1287.23 752.92 1278.97 766.52C1277.83 768.4 1275.32 774.45 1275.32 776.3V842.01H1251.33V774.38C1251.33 773.96 1249.7 769.63 1249.31 768.73C1242.66 753.63 1217.86 752.19 1208.7 765.33C1208.02 766.31 1205.28 771.83 1205.28 772.46V842.01H1180.33V735.53H1203.84L1205.13 737.12L1205.76 745.12C1224.1 727.64 1255.51 729.85 1270.05 750.86C1286.36 727.13 1327.31 727.43 1341.69 753.12C1343.16 755.75 1346.33 763.11 1346.33 765.75V842.01H1346.32Z"/>
    <path d="M1387.58 735.531L1415.4 804.591L1443.23 735.531H1470.1L1400.54 887.091H1374.15L1400.8 831.131L1360.71 735.531H1387.58Z"/>
    <path d="M1441.92 919.951C1454.19 918.611 1447.59 940.061 1437.21 937.741C1427.39 935.551 1437.06 920.481 1441.92 919.951Z"/>
    <path d="M1436.04 981.1C1424.26 978.56 1431.25 956.5 1443.95 954.47C1461.51 951.66 1465.74 978 1461.51 990.26C1458.06 1000.27 1450.13 1003.3 1442.27 1008.91C1457.73 1009.86 1475.39 1014.22 1464.36 1033.41C1452.7 1053.72 1408.16 1065.41 1386.18 1066.52C1364.53 1067.61 1321.84 1063.76 1316.69 1037.1C1309.97 1002.37 1362.38 988.45 1388.06 986.87C1391.68 986.65 1412.5 985.81 1412.5 990.22C1407.92 995.4 1399.76 993.65 1393.92 994.65C1376.19 997.69 1342.54 1005.51 1332.08 1021.08C1326.42 1029.49 1327.39 1037.08 1335.45 1043.3C1360.2 1062.41 1424.79 1053.12 1447.52 1032.89C1449.29 1031.31 1455.12 1026.13 1451.87 1023.81C1447.5 1020.68 1421.43 1022.66 1421.26 1011.37C1421.04 996.48 1452.43 997.09 1449.95 981.13C1445.87 980.54 1439.79 981.94 1436.04 981.13V981.1Z"/>
    <path d="M1394.04 1080.13C1403.85 1078.25 1405.25 1088.34 1398.14 1091.9C1392.41 1094.77 1374.34 1097.16 1369.06 1094.11C1358.62 1088.08 1381.33 1084.91 1384.5 1084.01C1387.67 1083.11 1391.31 1080.66 1394.05 1080.13H1394.04Z"/>
    <path d="M1235.19 970.381L1235.62 965.641C1240.86 963.231 1246.6 962.791 1252.08 961.211C1256.97 959.811 1268.71 952.251 1270.37 961.651C1272.55 974.031 1237.56 974.331 1235.19 970.371V970.381Z"/>
    <path d="M1138.24 1080.72L1138.69 1075.96C1148.69 1070.97 1169.96 1072.07 1176.89 1062.57C1182.56 1054.81 1183.49 1048.28 1192.47 1041.69C1210.06 1028.79 1225.87 1033.89 1244.06 1028.04C1250.11 1026.09 1259.07 1022.07 1258.57 1014.64C1256.42 1011.73 1240.52 1017.41 1238.9 1007.42C1236.42 992.079 1256.42 979.219 1266.51 995.159C1274.38 1007.6 1272.12 1026.64 1259.3 1034.64C1240.69 1046.26 1221.64 1039.42 1204.28 1048.7C1191.4 1055.59 1192.37 1062.39 1184.17 1071.76C1174.53 1082.78 1151.61 1083.12 1138.23 1080.71L1138.24 1080.72Z"/>
    <path d="M1144.93 1035.65C1141.91 1030 1141.21 1024.12 1140.18 1017.87C1137.79 1003.45 1134.19 979.408 1134.19 965.268C1134.19 958.288 1141.1 948.698 1145.73 957.648C1146.53 977.908 1151.19 999.848 1151.58 1019.9C1151.64 1023.08 1151.28 1039.59 1144.94 1035.64L1144.93 1035.65Z"/>
    <path d="M1111.96 1055.14C1117.53 1054.16 1121.23 1058.23 1119.46 1063.64C1117.29 1070.28 1094.65 1071.15 1088.75 1070.24C1085.52 1069.74 1083.1 1067.88 1084.82 1064.53C1086.15 1061.95 1097.39 1060.51 1100.89 1059.48C1104.13 1058.53 1109.12 1055.64 1111.96 1055.14Z"/>
    <path d="M1075.5 989.912C1081.07 988.932 1084.77 993.002 1083 998.412C1080.83 1005.05 1058.19 1005.92 1052.29 1005.01C1049.06 1004.51 1046.64 1002.65 1048.36 999.302C1049.69 996.722 1060.93 995.282 1064.43 994.252C1067.67 993.302 1072.66 990.412 1075.5 989.912Z"/>
    <path d="M1037.58 1029.78C1046.25 1032.84 1055.92 1030.72 1063.57 1026.01C1068.03 1023.26 1074 1015.39 1078.27 1014.98C1088.15 1014.03 1079.35 1028.29 1087.22 1030.58C1091.42 1031.8 1106.98 1026.04 1109.87 1022.42C1115.86 1014.9 1099.91 993.37 1116.48 996.45C1122.45 997.56 1124.31 1015.69 1123.71 1020.91C1122.84 1028.49 1115.97 1034.23 1109.62 1037.52C1097.77 1043.67 1081.47 1048.22 1073.28 1034.76C1061.99 1041.96 1048.87 1045.53 1035.39 1043.02C1025.15 1041.11 1025.42 1032.92 1023.91 1024.27C996.263 1041.85 961.033 1047.58 928.893 1041.09C907.643 1036.8 890.503 1025.36 894.613 1001C897.943 981.25 932.443 967.86 949.833 965.08C964.443 962.75 1000.94 960.58 998.973 983.5C997.113 1005.21 957.643 1010.63 940.913 1008.92C936.213 1008.44 931.133 1005.54 937.283 1002.42C943.433 999.3 957.143 999.08 964.613 997.13C971.573 995.31 987.983 990.09 986.533 980.66C986.123 977.99 981.653 976.72 979.203 976.4C959.623 973.78 925.613 979.9 911.613 995C896.693 1011.09 913.473 1025.06 929.833 1028.63C959.573 1035.12 998.663 1030.21 1021.82 1009.26C1022.17 1007.1 1022.09 1004.88 1021.96 1002.7C1021.01 986.78 1017.82 970.65 1017.19 954.72C1016.92 947.9 1014.79 938.75 1024.28 939.89C1028.59 940.41 1029.07 943.41 1029.54 947.17C1032.05 967.1 1032.3 988.33 1034.45 1008.45C1034.78 1011.53 1036.65 1028.75 1037.56 1029.8L1037.58 1029.78Z"/>
    <path d="M863.394 1032.14C876.144 1028.34 879.014 1047.22 867.744 1049.04C857.764 1050.65 854.434 1034.81 863.394 1032.14Z"/>
    <path d="M827.892 1032.14C841.132 1028.23 843.862 1047.09 832.252 1049.04C822.982 1050.6 819.372 1034.66 827.892 1032.14Z"/>
    <path d="M726.194 979.861C722.504 982.891 715.614 981.042 715.214 975.682C714.974 972.462 721.214 962.931 725.034 962.941C730.034 964.301 732.474 967.222 730.734 972.412C730.534 972.992 726.544 979.581 726.204 979.851L726.194 979.861Z"/>
    <path d="M630.243 925.611C631.563 925.401 632.683 925.801 633.773 926.501C634.953 927.171 635.193 928.311 635.623 929.461C639.143 939.041 641.373 969.441 640.023 979.581C638.823 988.571 633.293 990.351 630.943 980.191C627.533 965.451 627.713 948.491 623.973 933.591C624.003 930.401 627.063 926.121 630.253 925.621L630.243 925.611Z"/>
    <path d="M694.471 972.789C706.291 984.859 682.641 1003.41 673.991 1009.7C664.741 1016.41 653.581 1023.33 642.981 1027.15C646.091 1031.79 653.081 1030.37 657.781 1031.05C660.411 1031.43 662.361 1032.68 665.491 1032.94C679.221 1034.07 694.891 1030.85 708.531 1028.88C710.661 1027.8 713.381 1016.35 714.781 1013.06C718.981 1003.21 725.701 991.769 738.231 993.799C750.211 995.739 750.721 1013.44 756.621 1013.64C759.281 1013.73 763.721 1010.55 764.821 1016.14C765.721 1020.71 764.271 1023.76 760.311 1025.96L717.101 1039.83C714.521 1045.89 713.321 1052.66 707.761 1056.86C702.861 1053.23 706.671 1047.28 706.321 1042.49C680.771 1043.89 650.971 1051.29 629.101 1033.87C610.971 1041.52 590.641 1043.4 571.061 1043.49C569.671 1065.37 541.511 1075.05 523.241 1078.65C517.851 1079.71 491.311 1083.42 489.521 1077.4C489.171 1076.14 489.491 1075.47 490.401 1074.6C492.101 1072.99 511.111 1069.96 515.371 1068.87C523.761 1066.73 555.861 1056.85 558.361 1048.51C560.891 1040.06 546.551 1045.69 541.811 1039.54C535.661 1031.57 551.531 1010.24 565.261 1025.68C566.441 1027 567.081 1029.85 568.121 1030.49C570.931 1032.22 587.981 1030.36 592.471 1029.86C597.091 1029.34 622.401 1025.61 623.641 1021.69C622.771 1007.44 633.841 996.699 643.441 987.759C654.741 977.239 667.861 966.539 684.481 968.849C687.161 969.219 692.621 970.869 694.481 972.769L694.471 972.789ZM683.201 981.189C673.951 977.349 665.471 984.019 658.441 989.349C649.311 996.269 638.121 1006.2 635.311 1017.54C649.101 1011.82 663.891 1003.42 675.101 993.539C677.321 991.579 685.411 984.419 683.201 981.189ZM742.771 1018.49C740.551 1015.54 738.331 1005.5 733.881 1006.16C726.861 1009.46 725.041 1018.8 721.661 1025.21L742.771 1018.49Z"/>
    <path d="M468.493 1027.97C470.663 1031.44 480.633 1027.21 483.423 1025.41C494.083 1018.52 505.783 999.509 486.633 995.919C470.393 992.879 443.653 1000.79 428.073 1006.53C422.543 1008.57 412.133 1016.84 408.023 1010.5C408.493 1005.51 428.243 996.469 433.163 994.359C450.383 986.979 492.033 974.229 505.233 992.669C517.513 1009.82 501.143 1030.4 485.313 1037.86C470.663 1044.76 451.063 1043.2 458.013 1022.08C459.813 1016.62 473.703 998.299 479.913 1002.62C485.903 1006.78 464.083 1020.92 468.483 1027.97H468.493Z"/>
    <path d="M462.363 953.459C467.933 952.479 471.633 956.549 469.863 961.959C467.693 968.599 445.053 969.469 439.153 968.559C435.923 968.059 433.503 966.199 435.223 962.849C436.553 960.269 447.793 958.829 451.293 957.799C454.533 956.849 459.523 953.959 462.363 953.459Z"/>
    <path d="M343.863 1060.47C339.783 1056.15 346.233 1044.43 351.803 1044.35C365.943 1044.14 352.573 1069.69 343.863 1060.47Z"/>
    <path d="M297.853 981.779C292.433 975.109 307.013 957.429 312.203 969.859C314.353 974.999 304.403 989.839 297.853 981.779Z"/>
    <path d="M224.754 986.721C224.154 986.351 222.274 979.821 222.004 978.451C219.864 967.601 216.274 946.131 215.934 935.551C215.624 925.911 224.374 921.771 227.254 930.031C230.324 938.841 232.184 962.171 232.374 971.971C232.444 975.561 230.684 990.351 224.754 986.721Z"/>
    <path d="M316.741 1000.27C347.921 1002.36 351.041 1021.75 322.471 1034.3C299.671 1044.32 254.161 1049.85 230.841 1040.59C226.531 1038.88 224.271 1036.26 220.501 1034.03C202.171 1041.29 181.931 1043.63 162.251 1043.44C162.811 1057.79 149.461 1066.34 137.951 1071.43C125.781 1076.81 94.9113 1084.73 83.0213 1079.01C80.9613 1078.02 79.2213 1076.63 81.6713 1074.64C83.8613 1072.86 107.391 1068.86 112.761 1067.35C121.401 1064.92 146.681 1056.34 149.881 1047.77C150.461 1046.21 150.351 1045.02 149.681 1043.53C138.431 1044.14 127.421 1040.85 134.401 1027.59C138.351 1020.07 149.471 1017.1 155.391 1023.93C156.741 1025.49 158.371 1029.9 159.361 1030.51C165.791 1034.46 205.981 1026.38 214.931 1023.21C214.791 1018.49 215.141 1014.62 216.771 1010.17C221.671 996.769 250.711 971.659 264.881 969.049C278.601 966.529 294.441 971.369 286.871 988.159C278.801 1006.07 251.841 1016.87 236.411 1026.9C235.481 1027.5 234.691 1026.79 235.171 1029.04C237.761 1028.95 239.971 1030.54 242.441 1030.89C266.541 1034.37 300.931 1032.25 323.141 1020.59C324.091 1020.09 330.621 1016.57 328.261 1015.12C314.321 1009.57 289.051 1016.96 304.811 994.599C315.231 979.819 340.181 963.179 359.001 967.129C367.761 968.969 368.371 979.399 361.421 982.129C354.581 984.809 349.571 983.179 343.131 982.959C333.211 982.619 322.721 993.119 316.721 1000.28L316.741 1000.27ZM274.401 981.219C273.441 979.689 265.981 980.069 263.941 980.599C256.831 982.439 237.591 999.019 232.861 1005.17C230.171 1008.66 227.211 1012.97 227.511 1017.56C240.381 1011.86 254.711 1003.75 265.371 994.509C268.041 992.189 276.681 984.899 274.391 981.229L274.401 981.219Z"/>
    <path d="M59.7114 1027.98C73.4914 1034.78 100.811 1005.04 81.6614 996.92C68.8114 991.48 36.9514 1000.16 23.5914 1005.06C15.6414 1007.97 8.60141 1013.63 0.0914116 1012.74C-0.748588 1007.15 4.37141 1004.88 8.44141 1002.38C26.6414 991.18 77.8514 972.81 94.9914 990.31C114.791 1010.53 82.6714 1043.67 60.0714 1041.53C42.4414 1039.86 46.9214 1023.38 54.8214 1013.25C56.8814 1010.61 68.4514 998.46 71.6414 1003.1C73.2314 1012.64 57.9214 1017.43 59.7114 1027.98Z"/>
    <path d="M53.5827 953.491C62.1727 951.821 64.6927 962.051 57.0827 965.641C52.1027 967.991 27.8327 971.301 26.0827 966.101C23.9527 959.771 37.1427 959.581 41.1527 958.341C45.1627 957.101 50.3127 954.131 53.5927 953.491H53.5827Z"/>
  </g>
</svg>